<svg xmlns="http://www.w3.org/2000/svg" width="16" height="16" viewBox="0 0 16 16"><defs><style>.a{fill:#949494;}</style></defs><path class="a" d="M14.167,57.334H1.833A1.835,1.835,0,0,1,0,55.5v-11a1.835,1.835,0,0,1,1.833-1.833H14.167A1.835,1.835,0,0,1,16,44.5v11A1.835,1.835,0,0,1,14.167,57.334ZM1.833,43.668A.834.834,0,0,0,1,44.5v11a.835.835,0,0,0,.833.833H14.167A.835.835,0,0,0,15,55.5v-11a.834.834,0,0,0-.833-.833Zm0,0" transform="translate(0 -41.334)"/><path class="a" d="M15.5,171.668H.5a.5.5,0,0,1,0-1h15a.5.5,0,0,1,0,1Zm0,0" transform="translate(0 -165.335)"/><path class="a" d="M107.168,4a.5.5,0,0,1-.5-.5V.5a.5.5,0,0,1,1,0v3A.5.5,0,0,1,107.168,4Zm0,0" transform="translate(-103.335)"/><path class="a" d="M373.832,4a.5.5,0,0,1-.5-.5V.5a.5.5,0,1,1,1,0v3A.5.5,0,0,1,373.832,4Zm0,0" transform="translate(-361.666)"/></svg>